<svg width="276" height="150" viewBox="0 0 276 150" fill="none" xmlns="http://www.w3.org/2000/svg">
<g opacity="0.85">
<path d="M160.531 104.98C160.183 105.028 151.883 106.189 147.986 110C146.062 111.875 144.846 113.891 144.462 115.827C144.187 117.219 144.352 118.533 144.908 119.669L140.986 123.107V101.278C148.957 100.448 155.193 93.6924 155.193 85.502C155.193 76.7557 148.077 69.6401 139.331 69.6401C130.585 69.6401 123.469 76.7557 123.469 85.502C123.469 93.6863 129.705 100.448 137.676 101.278V118.386L134.231 115.369C134.958 114.031 135.178 112.449 134.848 110.77C134.402 108.522 132.979 106.177 130.731 103.984C126.151 99.5131 116.348 98.1389 115.932 98.0839C115.413 98.0106 114.894 98.1939 114.528 98.5664C114.161 98.939 113.996 99.4643 114.082 99.9834C114.149 100.399 115.767 110.165 120.348 114.63C123.304 117.513 126.163 118.673 128.563 118.673C129.846 118.673 130.988 118.337 131.953 117.763L137.682 122.79V148.345C137.682 149.255 138.421 150 139.337 150C140.247 150 140.992 149.261 140.992 148.345V127.517L147.186 122.081C148.022 122.552 148.969 122.796 149.989 122.796C150.368 122.796 150.759 122.759 151.156 122.692C153.104 122.356 155.144 121.19 157.068 119.314C160.971 115.509 162.339 107.246 162.4 106.897C162.486 106.378 162.315 105.853 161.954 105.48C161.569 105.09 161.05 104.906 160.531 104.98ZM122.651 112.248C120.061 109.719 118.534 104.723 117.826 101.773C120.794 102.408 125.827 103.807 128.417 106.335C130.646 108.51 131.379 110.293 131.599 111.399C131.77 112.26 131.776 113.494 130.829 114.459C129.082 116.254 125.87 115.387 122.651 112.248ZM126.774 85.4958C126.774 78.5758 132.405 72.9444 139.325 72.9444C146.245 72.9444 151.876 78.5758 151.876 85.4958C151.876 92.3121 146.416 97.8579 139.649 98.0351C139.545 98.0167 139.435 98.0045 139.325 98.0045C139.215 98.0045 139.105 98.0167 139.001 98.0351C132.228 97.8579 126.774 92.3121 126.774 85.4958ZM154.747 116.932C152.927 118.71 151.479 119.266 150.582 119.418C149.623 119.583 148.841 119.369 148.273 118.789C147.705 118.203 147.509 117.421 147.699 116.462C147.876 115.57 148.468 114.135 150.288 112.364C152.188 110.507 155.932 109.316 158.613 108.699C157.935 111.362 156.653 115.076 154.747 116.932Z" fill="#234D68"/>
<path d="M139.325 95.6352C140.125 95.6352 140.773 94.9877 140.773 94.1876V92.7767C142.837 92.2026 144.346 90.4253 144.346 88.3303C144.346 86.1132 142.654 84.4458 139.698 83.7312C139.698 83.7312 139.698 83.7312 139.691 83.7312C138.036 83.2975 137.193 82.6867 137.193 81.9294C137.193 80.9644 138.146 80.1765 139.325 80.1765C140.504 80.1765 141.457 80.9644 141.457 81.9294C141.457 82.7295 142.104 83.3769 142.904 83.3769C143.704 83.3769 144.352 82.7295 144.352 81.9294C144.352 79.8344 142.843 78.0571 140.779 77.4829V76.072C140.779 75.2719 140.131 74.6245 139.331 74.6245C138.531 74.6245 137.884 75.2719 137.884 76.072V77.4829C135.819 78.0571 134.311 79.8344 134.311 81.9294C134.311 83.4624 135.111 85.4963 138.904 86.5102C138.91 86.5102 138.916 86.5163 138.916 86.5163C138.922 86.5163 138.922 86.5163 138.928 86.5163C138.94 86.5224 138.952 86.5224 138.965 86.5285C138.971 86.5285 138.977 86.5285 138.983 86.5285C139.936 86.7545 141.463 87.2737 141.463 88.3303C141.463 89.2953 140.51 90.0832 139.331 90.0832C138.152 90.0832 137.2 89.2953 137.2 88.3303C137.2 87.5302 136.552 86.8828 135.752 86.8828C134.952 86.8828 134.304 87.5302 134.304 88.3303C134.304 90.4253 135.813 92.2026 137.877 92.7767V94.1876C137.877 94.9877 138.525 95.6352 139.325 95.6352Z" fill="#234D68"/>
<path d="M41.1552 107.142C40.4406 106.433 39.1213 106.586 38.59 107.441C38.3334 107.85 32.3479 117.513 33.1724 124.61C33.9847 131.622 37.6372 134.901 41.3812 135.335V147.978C41.3812 148.888 42.1202 149.633 43.0364 149.633C43.9465 149.633 44.6916 148.894 44.6916 147.978V134.987C48.2952 133.759 51.178 129.716 50.3596 122.619C49.5351 115.522 41.4973 107.478 41.1552 107.142ZM42.7432 132.055C39.5184 132.428 37.0508 129.356 36.4584 124.225C35.9636 119.937 38.7243 114.056 40.3185 111.081C42.841 113.946 46.6033 118.979 47.0736 122.997C47.6661 128.128 45.9681 131.683 42.7432 132.055Z" fill="#234D68"/>
<path d="M96.1007 118.246C92.4482 118.246 89.4799 121.215 89.4799 124.867C89.4799 126.144 89.8524 127.335 90.4815 128.349L87.2506 131.183V113.666C91.5138 112.603 95.0501 108.107 93.7858 100.033C92.607 92.5205 83.537 84.3422 83.1523 83.9941C82.7797 83.6643 82.285 83.5116 81.7963 83.591C81.3077 83.6704 80.8802 83.9574 80.6297 84.385C80.3671 84.8308 74.2349 95.3972 75.4137 102.904C76.5009 109.848 80.1595 113.177 83.9524 113.794V128.342L81.9246 126.559C82.9751 124.269 82.4682 120.976 79.0234 117.617C75.4076 114.093 67.7424 113.012 67.4187 112.969C66.9056 112.896 66.3804 113.079 66.0139 113.452C65.6474 113.824 65.4825 114.35 65.568 114.869C65.623 115.192 66.8873 122.827 70.5031 126.357C72.8607 128.66 75.1511 129.582 77.0934 129.582C78.0462 129.582 78.9074 129.356 79.6586 128.959L83.9646 132.734V148.327C83.9646 149.237 84.7036 149.982 85.6198 149.982C86.5298 149.982 87.275 149.243 87.275 148.327V135.556L92.9002 130.621C93.853 131.158 94.9524 131.463 96.1251 131.463C99.7775 131.463 102.746 128.495 102.746 124.843C102.746 121.19 99.7531 118.246 96.1007 118.246ZM72.7996 124.006C71.12 122.369 69.9717 119.132 69.3365 116.713C71.7613 117.287 75.0289 118.356 76.7086 119.993C78.9868 122.21 79.7319 124.513 78.5592 125.71C77.3926 126.907 75.0778 126.223 72.7996 124.006ZM78.6753 102.403C77.9423 97.7304 80.8679 91.1279 82.4804 87.9397C84.9907 90.4866 89.7914 95.8736 90.5243 100.546C91.3855 106.061 89.6204 109.989 86.0229 110.551C82.4193 111.112 79.5365 107.918 78.6753 102.403ZM96.1007 128.184C94.2745 128.184 92.7842 126.699 92.7842 124.867C92.7842 123.041 94.2745 121.551 96.1007 121.551C97.9269 121.551 99.4172 123.035 99.4172 124.867C99.4172 126.693 97.933 128.184 96.1007 128.184Z" fill="#234D68"/>
<path d="M232.285 0.916239L221.145 0.336003C220.216 0.281033 219.453 0.989532 219.41 1.89959C219.361 2.80964 220.064 3.59143 220.974 3.63419L227.558 3.97622C221.774 7.92183 202.675 20.2778 172.863 33.0002C139.686 47.158 86.084 64.6628 19.1614 67.6556C18.2513 67.6983 17.5428 68.4679 17.5856 69.378C17.6222 70.2636 18.3552 70.9599 19.2347 70.9599C19.2591 70.9599 19.2835 70.9599 19.308 70.9599C86.7741 67.9427 140.815 50.2791 174.268 35.993C204.874 22.9225 224.345 10.1939 229.805 6.44375L228.694 12.4843C228.529 13.3822 229.121 14.2433 230.019 14.4083C230.123 14.4266 230.221 14.4388 230.318 14.4388C231.1 14.4388 231.797 13.883 231.943 13.0829L233.824 2.86461C233.91 2.39431 233.794 1.9118 233.494 1.53923C233.195 1.16666 232.755 0.94067 232.285 0.916239Z" fill="#234D68"/>
<path d="M11.4043 105.285C11.0928 104.901 10.6225 104.681 10.1217 104.681C9.62694 104.681 9.15665 104.901 8.83904 105.285L4.60027 110.471C4.02003 111.179 4.12997 112.218 4.83236 112.798C5.54086 113.378 6.57918 113.268 7.15941 112.566L8.46647 110.972V125.056C8.46647 125.966 9.20551 126.711 10.1217 126.711C11.0378 126.711 11.7769 125.972 11.7769 125.056V110.972L13.0839 112.566C13.4137 112.963 13.884 113.17 14.3666 113.17C14.733 113.17 15.1056 113.048 15.411 112.798C16.1195 112.218 16.2233 111.179 15.6431 110.471L11.4043 105.285Z" fill="#234D68"/>
<path d="M275.571 74.2765L271.332 69.091C271.02 68.7062 270.55 68.4863 270.049 68.4863C269.554 68.4863 269.084 68.7062 268.767 69.091L264.528 74.2765C263.948 74.985 264.057 76.0233 264.76 76.6035C265.462 77.1777 266.507 77.0738 267.087 76.3714L268.394 74.7773V92.6791C268.394 93.5892 269.133 94.3343 270.049 94.3343C270.959 94.3343 271.704 93.5953 271.704 92.6791V74.7773L273.011 76.3714C273.341 76.7684 273.812 76.9761 274.294 76.9761C274.661 76.9761 275.033 76.8539 275.338 76.6035C276.047 76.0233 276.151 74.985 275.571 74.2765Z" fill="#234D68"/>
<path d="M257.461 48.8923C257.15 48.5075 256.679 48.2876 256.179 48.2876C255.678 48.2876 255.214 48.5075 254.896 48.8923L250.657 54.0777C250.077 54.7862 250.187 55.8246 250.889 56.4048C251.592 56.9789 252.636 56.8812 253.216 56.1727L254.523 54.5786V83.8286C254.523 84.7386 255.262 85.4838 256.179 85.4838C257.089 85.4838 257.834 84.7447 257.834 83.8286V54.5725L259.141 56.1666C259.471 56.5636 259.941 56.7713 260.423 56.7713C260.79 56.7713 261.162 56.6491 261.468 56.3987C262.176 55.8184 262.28 54.7801 261.7 54.0716L257.461 48.8923Z" fill="#234D68"/>
<path d="M207.775 111.118L217.669 102.439C219.184 103.441 220.998 104.027 222.94 104.027C228.236 104.027 232.548 99.7148 232.548 94.4194C232.548 89.124 228.236 84.8119 222.94 84.8119C217.645 84.8119 213.333 89.124 213.333 94.4194C213.333 96.5754 214.053 98.5543 215.257 100.161L207.775 106.72V82.1184C217.113 81.2816 224.461 73.4148 224.461 63.8562C224.461 53.7418 216.234 45.5146 206.119 45.5146C196.005 45.5146 187.778 53.7418 187.778 63.8562C187.778 73.4087 195.125 81.2816 204.464 82.1184V102.201L198.979 97.3877C199.951 95.7631 200.262 93.8025 199.847 91.7075C199.315 89.014 197.593 86.1861 194.881 83.5415C189.323 78.1178 177.358 76.4382 176.857 76.371C176.338 76.2977 175.819 76.4809 175.452 76.8535C175.086 77.2261 174.921 77.7513 175.007 78.2705C175.086 78.7774 177.065 90.6937 182.623 96.1112C185.341 98.762 188.205 100.405 190.911 100.869C191.449 100.961 191.974 101.01 192.487 101.01C194.044 101.01 195.48 100.588 196.701 99.782L204.47 106.592V126.931L200.683 123.608C201.459 122.21 201.697 120.548 201.349 118.783C200.885 116.444 199.401 114.001 197.055 111.71C192.273 107.044 182.024 105.609 181.591 105.548C181.065 105.474 180.552 105.658 180.186 106.03C179.819 106.403 179.655 106.928 179.74 107.447C179.807 107.881 181.505 118.087 186.288 122.753C188.633 125.038 191.113 126.461 193.464 126.87C193.934 126.949 194.399 126.992 194.851 126.992C196.158 126.992 197.361 126.65 198.405 126.003L204.476 131.322V148.32C204.476 149.23 205.215 149.975 206.132 149.975C207.048 149.975 207.787 149.236 207.787 148.32V136.276L214.353 130.522C215.226 131.023 216.228 131.286 217.297 131.286C217.694 131.286 218.097 131.249 218.506 131.182C220.528 130.834 222.659 129.618 224.663 127.664C228.73 123.694 230.166 115.057 230.227 114.691C230.312 114.172 230.141 113.647 229.781 113.274C229.414 112.901 228.895 112.718 228.376 112.791C228.01 112.84 219.343 114.056 215.269 118.026C211.348 121.849 210.828 125.581 212.087 128.116L207.793 131.884V111.118H207.775ZM222.94 88.1162C226.415 88.1162 229.243 90.9441 229.243 94.4194C229.243 97.8947 226.415 100.723 222.94 100.723C219.465 100.723 216.637 97.8947 216.637 94.4194C216.637 90.9441 219.465 88.1162 222.94 88.1162ZM191.467 97.6198C189.421 97.2656 187.161 95.928 184.925 93.7536C181.487 90.4005 179.557 83.6331 178.738 80.0662C182.324 80.793 189.134 82.5581 192.579 85.9113C194.814 88.0918 196.207 90.3211 196.61 92.355C196.939 94.0102 196.573 95.4333 195.559 96.4716C194.539 97.5038 193.122 97.9069 191.467 97.6198ZM194.02 123.614C192.841 123.413 190.942 122.686 188.59 120.39C185.823 117.69 184.217 112.333 183.484 109.249C186.587 109.903 191.98 111.381 194.747 114.074C197.098 116.371 197.874 118.252 198.106 119.424C198.289 120.347 198.295 121.666 197.281 122.704C196.261 123.749 194.942 123.779 194.02 123.614ZM217.553 120.402C219.587 118.417 223.612 117.152 226.44 116.517C225.731 119.333 224.363 123.321 222.335 125.306C220.412 127.181 218.878 127.768 217.926 127.933C216.893 128.11 216.051 127.884 215.434 127.249C214.011 125.783 214.86 123.028 217.553 120.402ZM191.082 63.8562C191.082 55.568 197.825 48.8189 206.119 48.8189C214.408 48.8189 221.157 55.5619 221.157 63.8562C221.157 72.1444 214.414 78.8935 206.119 78.8935C197.831 78.8874 191.082 72.1444 191.082 63.8562Z" fill="#234D68"/>
<path d="M207.567 73.5125V72.2116C209.979 71.6191 211.769 69.5914 211.769 67.1849C211.769 64.6991 209.839 62.824 206.474 62.0239C203.371 61.1993 203.371 60.045 203.371 59.6663C203.371 58.3898 204.605 57.3514 206.125 57.3514C207.646 57.3514 208.88 58.3898 208.88 59.6663C208.88 60.4664 209.527 61.1138 210.328 61.1138C211.128 61.1138 211.775 60.4664 211.775 59.6663C211.775 57.2598 209.992 55.2321 207.573 54.6396V53.3387C207.573 52.5385 206.926 51.8911 206.125 51.8911C205.325 51.8911 204.678 52.5385 204.678 53.3387V54.6396C202.265 55.2321 200.482 57.2598 200.482 59.6663C200.482 61.3764 201.392 63.6485 205.692 64.8029H205.698C205.698 64.8029 205.698 64.8029 205.704 64.8029C205.722 64.809 205.741 64.8151 205.759 64.8212C205.771 64.8212 205.777 64.8212 205.79 64.8273C206.987 65.1083 208.88 65.7801 208.88 67.1849C208.88 68.4614 207.646 69.4997 206.125 69.4997C204.605 69.4997 203.371 68.4614 203.371 67.1849C203.371 66.3848 202.723 65.7374 201.923 65.7374C201.123 65.7374 200.476 66.3848 200.476 67.1849C200.476 69.5914 202.259 71.6191 204.672 72.2116V73.5125C204.672 74.3127 205.319 74.9601 206.119 74.9601C206.919 74.9601 207.567 74.3065 207.567 73.5125Z" fill="#234D68"/>
<path d="M219.331 41.2456C219.96 41.6243 220.778 41.4227 221.157 40.7937L222.464 38.6315C222.842 38.0024 222.641 37.184 222.012 36.8053C221.383 36.4266 220.564 36.6282 220.186 37.2573L218.879 39.4194C218.5 40.0424 218.701 40.8669 219.331 41.2456Z" fill="#234D68"/>
<path d="M224.265 49.2647C224.571 49.4479 224.925 49.5029 225.273 49.4174L227.722 48.8127C228.064 48.7272 228.358 48.5134 228.541 48.2081C228.724 47.9027 228.779 47.5484 228.694 47.2003C228.523 46.5101 227.771 46.0581 227.087 46.2291L224.638 46.8338C223.93 47.0109 223.49 47.7316 223.667 48.4463C223.746 48.7883 223.96 49.0815 224.265 49.2647Z" fill="#234D68"/>
<path d="M209.949 40.6288C210.242 40.8059 210.596 40.8731 210.957 40.7815C211.671 40.6044 212.105 39.8837 211.928 39.1691L211.323 36.7198C211.146 36.0113 210.425 35.5716 209.711 35.7487C208.996 35.9258 208.562 36.6466 208.74 37.3612L209.344 39.8104C209.43 40.1646 209.656 40.4517 209.949 40.6288Z" fill="#234D68"/>
<path d="M10.1767 98.8352C10.8242 98.8718 11.38 98.3771 11.4166 97.7297L11.5449 95.5064C11.5815 94.859 11.0868 94.3032 10.4394 94.2666C9.79196 94.2299 9.23616 94.7246 9.19951 95.3721L9.07125 97.5953C9.0346 98.2427 9.52933 98.7985 10.1767 98.8352Z" fill="#234D68"/>
<path d="M18.294 99.538L16.6265 101.022C16.144 101.45 16.1013 102.195 16.5288 102.684C16.7365 102.916 17.0235 103.056 17.335 103.074C17.6465 103.093 17.9519 102.989 18.184 102.781L19.8514 101.297C20.0835 101.089 20.224 100.802 20.2423 100.491C20.2606 100.179 20.1568 99.874 19.9492 99.6419C19.5338 99.1716 18.7581 99.1227 18.294 99.538Z" fill="#234D68"/>
<path d="M2.05347 98.5972C1.62593 98.1147 0.880783 98.072 0.392164 98.4995C-0.0903485 98.9332 -0.133103 99.6722 0.29444 100.161L1.77862 101.828C1.99239 102.073 2.28557 102.201 2.58484 102.219C2.88412 102.237 3.18951 102.14 3.43382 101.926C3.91633 101.492 3.95909 100.753 3.53155 100.265L2.05347 98.5972Z" fill="#234D68"/>
<path d="M121.509 21.4565C119.408 21.4565 117.697 19.9968 117.697 18.2011C117.697 17.3521 117.007 16.6558 116.152 16.6558C115.297 16.6558 114.607 17.346 114.607 18.2011C114.607 21.2061 116.897 23.7286 119.963 24.376V25.4082C119.963 26.2572 120.654 26.9535 121.509 26.9535C122.364 26.9535 123.054 26.2633 123.054 25.4082V24.376C126.114 23.7286 128.41 21.2122 128.41 18.2011C128.41 16.4237 127.549 13.266 121.906 11.9101C117.697 10.8046 117.697 9.14941 117.697 8.60582C117.697 6.81014 119.408 5.35039 121.509 5.35039C123.61 5.35039 125.32 6.81014 125.32 8.60582C125.32 9.45479 126.01 10.1511 126.865 10.1511C127.72 10.1511 128.41 9.4609 128.41 8.60582C128.41 5.6008 126.12 3.0783 123.054 2.43088V1.54526C123.054 0.696283 122.364 0 121.509 0C120.654 0 119.963 0.690175 119.963 1.54526V2.4431C116.903 3.09052 114.607 5.60691 114.607 8.61803C114.607 10.6886 115.725 13.4432 120.996 14.8724C121.008 14.8724 121.014 14.8785 121.026 14.8846C121.032 14.8846 121.038 14.8907 121.051 14.8907C121.075 14.8968 121.093 14.9029 121.118 14.909C121.13 14.909 121.136 14.909 121.148 14.9151C122.761 15.2999 125.32 16.2161 125.32 18.2133C125.32 19.9968 123.61 21.4565 121.509 21.4565Z" fill="#234D68"/>
<path d="M140.345 23.4963C138.867 23.4963 137.658 22.4885 137.658 21.2547C137.658 20.4058 136.967 19.7095 136.112 19.7095C135.263 19.7095 134.567 20.3997 134.567 21.2547C134.567 23.6978 136.363 25.7623 138.794 26.3852V27.3258C138.794 28.1748 139.484 28.8711 140.339 28.8711C141.194 28.8711 141.884 28.1809 141.884 27.3258V26.3852C144.321 25.7623 146.111 23.6978 146.111 21.2547C146.111 18.7078 144.144 16.79 140.712 15.9715C138.684 15.4341 137.652 14.6645 137.652 13.6811C137.652 12.4413 138.855 11.4396 140.339 11.4396C141.823 11.4396 143.026 12.4474 143.026 13.6811C143.026 14.5362 143.717 15.2264 144.572 15.2264C145.427 15.2264 146.117 14.5362 146.117 13.6811C146.117 11.238 144.321 9.17362 141.89 8.55063V7.85434C141.89 7.00537 141.2 6.30908 140.345 6.30908C139.49 6.30908 138.8 6.99926 138.8 7.85434V8.55063C136.363 9.17362 134.573 11.238 134.573 13.6811C134.573 15.4341 135.502 17.7611 139.887 18.9399H139.893H139.899C139.918 18.946 139.936 18.9521 139.954 18.9582C139.96 18.9582 139.972 18.9582 139.979 18.9643C141.157 19.2453 143.032 19.8988 143.032 21.2547C143.032 22.4946 141.829 23.4963 140.345 23.4963Z" fill="#234D68"/>
<path d="M77.7651 35.4556H80.1226C80.2631 35.8465 80.4219 36.2313 80.5991 36.6039L78.9316 38.2713C78.1682 39.0347 78.1682 40.2807 78.9316 41.0442L82.6268 44.7394C83.3659 45.4784 84.6607 45.4784 85.3997 44.7394L87.0672 43.072C87.4458 43.2491 87.8306 43.4079 88.2215 43.5484V45.906C88.2215 46.987 89.101 47.8666 90.1821 47.8666H95.4042C96.4853 47.8666 97.3648 46.987 97.3648 45.906V43.5484C97.7557 43.4079 98.1405 43.2491 98.5131 43.072L100.18 44.7394C100.944 45.5029 102.19 45.5029 102.953 44.7394L106.649 41.0442C107.412 40.2807 107.412 39.0347 106.649 38.2713L104.981 36.6039C105.158 36.2252 105.317 35.8404 105.458 35.4556H107.815C108.896 35.4556 109.776 34.5761 109.776 33.495V28.2729C109.776 27.1918 108.896 26.3123 107.815 26.3123H105.458C105.317 25.9214 105.158 25.5366 104.981 25.1641L106.649 23.4966C107.412 22.7332 107.412 21.4872 106.649 20.7237L102.953 17.0285C102.184 16.2651 100.944 16.2651 100.18 17.0285L98.5131 18.6959C98.1344 18.5188 97.7496 18.36 97.3648 18.2195V15.862C97.3648 14.7809 96.4853 13.9014 95.4042 13.9014H90.1821C89.101 13.9014 88.2215 14.7809 88.2215 15.862V18.2195C87.8306 18.36 87.4519 18.5188 87.0733 18.6959L85.4058 17.0285C85.0333 16.656 84.5447 16.4544 84.0194 16.4544C83.4941 16.4544 83.0055 16.656 82.6329 17.0285L78.9377 20.7237C78.1743 21.4872 78.1743 22.7332 78.9377 23.4966L80.6052 25.1641C80.428 25.5427 80.2692 25.9275 80.1288 26.3123H77.7712C76.6901 26.3123 75.8106 27.1918 75.8106 28.2729V33.495C75.8045 34.5761 76.684 35.4556 77.7651 35.4556ZM78.2781 28.7921H81.0205C81.5763 28.7921 82.0649 28.4256 82.2115 27.8881C82.4436 27.0758 82.7734 26.2818 83.1948 25.5305C83.4636 25.048 83.3842 24.4433 82.9872 24.0524L81.0449 22.1102L84.0072 19.1479L85.9494 21.0902C86.3403 21.4811 86.945 21.5666 87.4275 21.2978C88.1849 20.8764 88.9789 20.5405 89.7851 20.3145C90.3165 20.1618 90.689 19.6732 90.689 19.1235V16.3811H94.8729V19.1235C94.8729 19.6793 95.2393 20.1679 95.7768 20.3145C96.583 20.5405 97.377 20.8703 98.1344 21.2978C98.6169 21.5666 99.2216 21.4872 99.6125 21.0902L101.555 19.1479L104.517 22.1102L102.575 24.0524C102.184 24.4433 102.098 25.048 102.367 25.5305C102.788 26.2879 103.118 27.0819 103.35 27.8881C103.503 28.4195 103.986 28.7921 104.541 28.7921H107.284V32.9759H104.541C103.986 32.9759 103.497 33.3423 103.35 33.8798C103.124 34.686 102.795 35.48 102.367 36.2374C102.098 36.7199 102.178 37.3246 102.575 37.7216L104.517 39.6638L101.555 42.6261L99.6125 40.6838C99.2216 40.2929 98.6169 40.2074 98.1283 40.4762C97.3709 40.8976 96.583 41.2274 95.7707 41.4595C95.2393 41.6122 94.8668 42.1008 94.8668 42.6505V45.3929H90.6829V42.6505C90.6829 42.0947 90.3165 41.6061 89.779 41.4595C88.9728 41.2335 88.1788 40.9037 87.4214 40.4762C86.9389 40.2074 86.3342 40.2868 85.9372 40.6838L83.995 42.6261L81.0327 39.6638L82.975 37.7216C83.3659 37.3307 83.4514 36.726 83.1826 36.2374C82.7612 35.48 82.4314 34.686 82.1993 33.8798C82.0466 33.3484 81.5641 32.9759 81.0083 32.9759H78.2659V28.7921H78.2781Z" fill="#234D68"/>
<path d="M85.5646 35.2416C86.2731 36.4081 87.2625 37.3976 88.4291 38.1C89.1559 38.5397 89.9377 38.8635 90.7623 39.065C91.4219 39.2299 92.106 39.3093 92.7839 39.3093C93.468 39.3093 94.1459 39.2238 94.8056 39.065C95.6301 38.8635 96.418 38.5336 97.1448 38.1C98.3114 37.3915 99.3009 36.402 100.003 35.2355C100.443 34.5086 100.767 33.7207 100.968 32.9023C101.133 32.2427 101.213 31.5586 101.213 30.8806C101.213 30.2027 101.133 29.5186 100.968 28.8529C100.767 28.0283 100.443 27.2404 100.003 26.5197C99.2948 25.3531 98.3053 24.3637 97.1387 23.6613C96.4119 23.2215 95.6301 22.8978 94.8056 22.6963C93.4802 22.3664 92.0815 22.3725 90.7561 22.6963C89.9316 22.8978 89.1437 23.2276 88.423 23.6613C87.2564 24.3698 86.267 25.3592 85.5585 26.5258C85.1248 27.2465 84.795 28.0344 84.5934 28.859C84.4285 29.5186 84.3491 30.2027 84.3491 30.8806C84.3491 31.5586 84.4285 32.2427 84.5934 32.9023C84.8011 33.7329 85.1248 34.5147 85.5646 35.2416ZM87.006 29.4514C87.1526 28.8651 87.3786 28.3154 87.6901 27.8023C88.1909 26.9778 88.8872 26.2754 89.7178 25.7807C90.2248 25.4753 90.7806 25.2432 91.3608 25.1027C92.2953 24.8706 93.2848 24.8706 94.2253 25.1027C94.8056 25.2493 95.3614 25.4753 95.8744 25.7868C96.699 26.2876 97.4014 26.9839 97.8961 27.8084C98.2076 28.3215 98.4336 28.8712 98.5802 29.4575C98.6962 29.9278 98.7573 30.4103 98.7512 30.8867C98.7512 31.3693 98.6901 31.8518 98.5802 32.316C98.4336 32.8962 98.2076 33.452 97.8961 33.9589C97.3953 34.7835 96.699 35.4859 95.8744 35.9806C95.3614 36.2921 94.8117 36.5181 94.2253 36.6647C93.297 36.8968 92.3075 36.8968 91.3669 36.6647C90.7867 36.5242 90.2309 36.2921 89.7239 35.9806C88.8994 35.4798 88.197 34.7835 87.7023 33.9589C87.3969 33.4459 87.1648 32.8901 87.0182 32.3098C86.9022 31.8395 86.8472 31.3631 86.8472 30.8806C86.8472 30.3981 86.8899 29.9217 87.006 29.4514Z" fill="#234D68"/>
</g>
</svg>
