<svg width="145" height="188" viewBox="0 0 145 188" fill="none" xmlns="http://www.w3.org/2000/svg">
<g opacity="0.85">
<path d="M80.6316 27.4923C77.7361 27.4923 75.3821 29.8478 75.3821 32.7418C75.3821 33.7547 75.6719 34.7024 76.1705 35.5051L73.6142 37.7476V23.8625C76.9955 23.02 79.8002 19.454 78.7968 13.0514C77.8635 7.09474 70.6709 0.606138 70.3635 0.333788C70.0705 0.0725878 69.6771 -0.0468636 69.2869 0.0168438C68.8983 0.0773659 68.5574 0.309898 68.3599 0.64914C68.1513 1.00272 63.2872 9.38024 64.2221 15.3369C65.0854 20.8428 67.9872 23.4898 70.9926 23.9772V35.5098L69.384 34.0987C70.2186 32.2847 69.8172 29.6711 67.0826 27.0049C64.2158 24.2081 58.1365 23.3545 57.8785 23.3194C57.4707 23.2637 57.0535 23.4054 56.7636 23.7033C56.4737 23.9995 56.3415 24.4168 56.4084 24.8277C56.4498 25.0841 57.4548 31.1395 60.3216 33.9363C62.1915 35.7599 64.0103 36.4941 65.5457 36.4941C66.3006 36.4941 66.987 36.3157 67.5779 36.0036L70.991 38.9962V76.5836H73.6126V41.234L78.0705 37.3239C78.8286 37.7492 79.7014 37.9928 80.63 37.9928C83.5255 37.9928 85.8795 35.6373 85.8795 32.7434C85.8795 29.8494 83.5271 27.4923 80.6316 27.4923ZM62.1532 32.0585C60.8233 30.762 59.9107 28.193 59.4058 26.277C61.3314 26.731 63.9195 27.5799 65.2526 28.8795C67.0571 30.6394 67.648 32.4614 66.7211 33.4123C65.7941 34.3615 63.9577 33.8184 62.1532 32.0585ZM66.8118 14.9292C66.2305 11.223 68.5479 5.98942 69.8284 3.45705C71.8208 5.47657 75.6274 9.74975 76.2087 13.4559C76.8935 17.8294 75.492 20.9431 72.6379 21.3907C69.7822 21.835 67.4967 19.3027 66.8118 14.9292ZM80.6316 35.3713C79.1822 35.3713 78.002 34.1911 78.002 32.7418C78.002 31.2924 79.1822 30.1122 80.6316 30.1122C82.0809 30.1122 83.2611 31.2924 83.2611 32.7418C83.2611 34.1911 82.0809 35.3713 80.6316 35.3713Z" fill="#234D68"/>
<path d="M82.0537 187.993C82.1461 185.252 82.4312 178.81 83.2355 171.853C84.6148 159.911 86.8557 151.906 89.7129 148.704C97.5187 139.955 106.055 138.893 111.703 139.004C111.969 139.101 112.253 139.106 112.514 139.028C113.309 139.06 114.033 139.109 114.681 139.157C114.793 139.187 114.908 139.203 115.022 139.203C115.081 139.203 115.142 139.198 115.201 139.189C118.061 139.34 121.001 138.177 123.376 137.235C124.914 136.623 127.023 135.787 127.616 136.113C127.738 136.18 127.851 136.435 127.92 136.795C128.195 138.232 127.511 139.426 126.396 140.396C126.362 140.42 126.33 140.444 126.297 140.468C126.222 140.52 126.155 140.581 126.096 140.645C123.519 142.674 119.131 143.656 118.42 143.804C113.723 144.789 106.834 148.664 106.543 148.829C105.92 149.181 105.7 149.971 106.052 150.596C106.404 151.218 107.196 151.438 107.819 151.086C107.887 151.048 114.648 147.243 118.95 146.343C122.242 145.654 125.55 144.405 127.791 142.586C127.794 142.583 127.799 142.581 127.802 142.58C129.266 141.536 134.098 137.956 134.807 135.728C135.186 134.533 137.291 128.59 141.528 128.59C141.537 128.59 141.547 128.59 141.556 128.59C141.617 128.59 141.66 128.594 141.689 128.599C141.759 128.854 141.929 130.185 139.779 134.548C138.331 137.485 136.511 140.441 135.636 141.861C135.471 142.131 135.342 142.341 135.257 142.483C134.901 143.078 132.438 145.208 128.922 147.496C125.004 150.045 121.342 151.782 118.873 152.263C112.429 153.518 105.493 158.602 103.08 163.836C101.15 168.023 102.577 182.913 103.134 187.998H105.74C104.829 179.903 104.065 167.891 105.433 164.92C107.498 160.438 113.75 155.901 119.367 154.807C125.786 153.555 136.18 145.986 137.481 143.812C137.56 143.679 137.685 143.478 137.842 143.22C143.348 134.28 145.17 129.516 143.938 127.293C143.672 126.814 143.011 126.006 141.572 125.998C141.556 125.998 141.542 125.998 141.526 125.998C139.736 125.998 138.242 126.653 137.013 127.613C137.635 122.996 136.888 121.464 136.269 120.712C135.714 120.042 134.921 119.702 134.037 119.76C130.099 120.014 128.681 126.095 127.92 129.362C127.804 129.859 127.705 130.287 127.63 130.533C127.55 130.795 127.311 131.136 126.971 131.51C127.09 131.093 127.208 130.66 127.323 130.219C128.754 124.681 128.162 122.916 127.592 122.071C127.143 121.405 126.453 121.024 125.647 121C121.616 120.875 119.928 126.363 119.022 129.311C118.9 129.706 118.795 130.047 118.714 130.268C118.335 131.315 116.054 134.457 114.441 136.547C114.408 136.545 114.372 136.542 114.337 136.54C114.917 135.481 115.655 134.079 116.36 132.594C119.16 126.694 118.905 124.797 118.372 123.803C117.985 123.084 117.298 122.665 116.438 122.622C112.64 122.434 110.838 126.465 109.872 128.631C109.68 129.058 109.516 129.427 109.381 129.674C108.542 131.206 105.235 135.917 104.434 137.058C103.923 137.163 103.405 137.279 102.88 137.416C97.2049 138.894 92.1243 142.111 87.7778 146.982C84.5144 150.639 82.119 158.916 80.6569 171.581C79.8367 178.686 79.55 185.259 79.4592 188H82.0537V187.993ZM130.111 131.275C130.209 130.951 130.312 130.507 130.443 129.945C130.758 128.59 131.236 126.543 131.967 124.882C132.371 123.961 133.201 122.407 134.203 122.341C134.227 122.34 134.244 122.34 134.254 122.341C134.332 122.426 134.958 123.249 134.469 127.062C134.168 129.411 133.598 131.609 133.593 131.632C133.56 131.762 133.547 131.894 133.553 132.022C132.884 133.318 132.492 134.447 132.336 134.938C132.203 135.36 131.516 136.126 130.559 137.016C130.541 136.782 130.51 136.545 130.463 136.304C130.237 135.129 129.699 134.299 128.86 133.839C128.737 133.772 128.613 133.716 128.485 133.667C129.224 132.925 129.866 132.093 130.111 131.275ZM121.151 131.147C121.253 130.867 121.366 130.498 121.498 130.069C122.092 128.14 123.47 123.663 125.478 123.587C125.603 123.888 125.931 125.2 124.841 129.461C124.274 131.675 123.562 133.743 123.303 134.476C123.013 134.589 122.718 134.705 122.419 134.825C120.961 135.403 119.381 136.029 117.825 136.365C119.143 134.584 120.729 132.31 121.151 131.147ZM111.655 130.913C111.84 130.574 112.025 130.16 112.24 129.682C113.235 127.451 114.353 125.278 116.12 125.205C116.155 125.699 116.015 127.303 113.968 131.592C113.016 133.587 111.988 135.449 111.436 136.422C110.306 136.411 109.147 136.445 107.951 136.548C109.27 134.642 111.031 132.052 111.655 130.913Z" fill="#234D68"/>
<path d="M38.8729 164.915C40.2426 167.886 39.4781 179.898 38.5655 187.993H41.1711C41.7301 182.908 43.1556 168.018 41.2252 163.831C38.8139 158.597 31.8762 153.513 25.4338 152.258C22.9651 151.777 19.3035 150.04 15.3855 147.491C11.8673 145.203 9.40658 143.075 9.04982 142.478C8.9654 142.338 8.8364 142.127 8.67076 141.858C7.79637 140.437 5.97593 137.481 4.52818 134.545C2.37806 130.182 2.54847 128.851 2.61855 128.596C2.64722 128.591 2.69181 128.586 2.75074 128.586C2.7603 128.586 2.76986 128.586 2.77941 128.586C7.01596 128.586 9.11989 134.53 9.50055 135.725C10.2093 137.954 15.0415 141.533 16.5052 142.576C16.5084 142.58 16.5131 142.581 16.5163 142.583C18.7572 144.402 22.0652 145.65 25.3573 146.34C29.6592 147.241 36.4217 151.045 36.4886 151.083C37.1113 151.435 37.9013 151.215 38.2549 150.592C38.6069 149.97 38.3871 149.18 37.7643 148.826C37.4729 148.662 30.5861 144.785 25.8877 143.801C25.1758 143.651 20.7879 142.67 18.2109 140.641C18.152 140.578 18.0851 140.517 18.0103 140.465C17.9768 140.441 17.945 140.417 17.9115 140.393C16.7982 139.421 16.1118 138.228 16.3873 136.792C16.4558 136.432 16.5705 136.177 16.6915 136.11C17.2856 135.784 19.3927 136.621 20.9312 137.231C23.3043 138.173 26.246 139.338 29.1065 139.186C29.1654 139.194 29.2244 139.2 29.2849 139.2C29.3996 139.2 29.5142 139.184 29.6257 139.154C30.2723 139.106 30.9986 139.057 31.7934 139.025C32.0546 139.103 32.3381 139.098 32.604 139.001C38.2501 138.889 46.7869 139.952 54.5942 148.7C57.4531 151.903 59.6924 159.908 61.0717 171.85C61.876 178.808 62.1611 185.249 62.2535 187.99H64.8464C64.7556 185.251 64.4689 178.678 63.6487 171.571C62.1866 158.906 59.7912 150.631 56.5278 146.972C52.1813 142.102 47.1007 138.883 41.4259 137.407C40.9019 137.27 40.3843 137.152 39.8715 137.048C39.0688 135.909 35.7623 131.197 34.9246 129.665C34.7892 129.418 34.6252 129.05 34.434 128.621C33.4673 126.455 31.6675 122.421 27.8674 122.612C27.0073 122.655 26.3209 123.076 25.9339 123.794C25.3987 124.788 25.1439 126.685 27.9454 132.584C28.651 134.07 29.3884 135.471 29.9681 136.531C29.9347 136.532 29.8997 136.535 29.8646 136.537C28.2528 134.449 25.9721 131.307 25.593 130.259C25.5134 130.039 25.4083 129.696 25.2857 129.301C24.3778 126.353 22.6864 120.865 18.6601 120.989C17.8558 121.015 17.1645 121.394 16.7154 122.059C16.1452 122.905 15.5528 124.67 16.9846 130.208C17.0992 130.649 17.2171 131.082 17.3366 131.499C16.9973 131.125 16.7568 130.784 16.6772 130.521C16.6039 130.276 16.5036 129.848 16.3873 129.351C15.626 126.084 14.2101 120.003 10.2698 119.748C9.38587 119.691 8.59271 120.029 8.03846 120.701C7.41891 121.451 6.67194 122.985 7.29468 127.6C6.06512 126.64 4.57118 125.985 2.781 125.985C2.76667 125.985 2.75074 125.985 2.73482 125.985C1.29662 125.995 0.635657 126.801 0.368086 127.28C-0.864652 129.504 0.95738 134.267 6.46329 143.207C6.62097 143.464 6.7452 143.664 6.82483 143.798C8.12606 145.974 18.5183 153.542 24.9384 154.792C30.5558 155.896 36.8071 160.434 38.8729 164.915ZM28.1875 125.203C29.9474 125.267 31.0687 127.446 32.0673 129.682C32.2807 130.161 32.4655 130.576 32.6518 130.913C33.2762 132.052 35.0377 134.642 36.358 136.547C35.1619 136.445 34.0008 136.411 32.8732 136.421C32.3221 135.448 31.2933 133.586 30.3408 131.59C28.2895 127.298 28.1509 125.696 28.1875 125.203ZM18.8273 123.587C20.8325 123.657 22.2134 128.14 22.8074 130.071C22.9396 130.499 23.0527 130.869 23.1546 131.149C23.5767 132.312 25.163 134.586 26.4802 136.367C24.9241 136.03 23.3442 135.405 21.8869 134.826C21.5874 134.707 21.2928 134.591 21.0029 134.478C20.7433 133.747 20.0362 131.692 19.4692 129.48C18.3734 125.202 18.7031 123.886 18.8273 123.587ZM10.05 122.341C10.0596 122.34 10.0771 122.34 10.101 122.341C11.1028 122.407 11.9326 123.961 12.3371 124.882C13.0682 126.544 13.546 128.591 13.8613 129.945C13.9919 130.507 14.0954 130.95 14.1926 131.275C14.4379 132.093 15.0797 132.925 15.8187 133.669C15.6913 133.716 15.5655 133.774 15.4444 133.841C14.6067 134.301 14.0668 135.131 13.8406 136.306C13.7944 136.548 13.7626 136.785 13.7451 137.018C12.7894 136.128 12.1014 135.36 11.9676 134.939C11.8115 134.449 11.4197 133.32 10.7508 132.023C10.7572 131.896 10.7444 131.764 10.7094 131.633C10.703 131.611 10.1392 129.435 9.8366 127.086C9.34287 123.252 9.97198 122.427 10.05 122.341Z" fill="#234D68"/>
<path d="M140.77 74.1645L137.64 70.3357C137.408 70.0522 137.062 69.8882 136.696 69.8882C136.329 69.8882 135.982 70.0522 135.751 70.3357L132.622 74.1645C132.195 74.6869 132.273 75.4562 132.795 75.8815C133.316 76.3083 134.085 76.2303 134.512 75.7079L135.476 74.5293V87.7502C135.476 88.4239 136.022 88.9701 136.696 88.9701C137.369 88.9701 137.916 88.4239 137.916 87.7502V74.5293L138.879 75.7079C139.121 76.0025 139.472 76.1554 139.825 76.1554C140.098 76.1554 140.37 76.0646 140.598 75.8799C141.119 75.4546 141.195 74.6854 140.77 74.1645Z" fill="#234D68"/>
<path d="M130.521 59.2471L127.393 55.4182C127.16 55.1347 126.815 54.9707 126.448 54.9707C126.082 54.9707 125.735 55.1347 125.504 55.4182L122.373 59.2471C121.946 59.7695 122.024 60.5371 122.546 60.964C123.067 61.3892 123.836 61.3144 124.263 60.7904L125.227 59.6118V81.215C125.227 81.8887 125.773 82.435 126.447 82.435C127.12 82.435 127.667 81.8887 127.667 81.215V59.6134L128.63 60.792C128.872 61.0866 129.223 61.2395 129.576 61.2395C129.849 61.2395 130.121 61.1487 130.349 60.964C130.871 60.5387 130.948 59.7695 130.521 59.2471Z" fill="#234D68"/>
<path d="M16.3554 83.5581C16.1293 83.281 15.79 83.1201 15.4333 83.1201C15.0749 83.1201 14.7373 83.281 14.5111 83.5581L11.4563 87.2961C11.0406 87.8058 11.1155 88.556 11.6252 88.9732C12.1348 89.3905 12.8866 89.3141 13.3023 88.8044L14.2435 87.6529V97.8079C14.2435 98.4656 14.7771 98.9992 15.4349 98.9992C16.0926 98.9992 16.6262 98.4656 16.6262 97.8079V87.6529L17.5675 88.8044C17.8032 89.0927 18.1456 89.2424 18.4912 89.2424C18.7572 89.2424 19.0232 89.1548 19.2446 88.9732C19.7542 88.556 19.8291 87.8058 19.4134 87.2961L16.3554 83.5581Z" fill="#234D68"/>
<path d="M15.4698 78.9091C15.9365 78.9362 16.3378 78.5795 16.3649 78.1128L16.4589 76.5074C16.486 76.0407 16.1292 75.6394 15.6625 75.6123C15.1959 75.5852 14.7945 75.942 14.7675 76.4086L14.6735 78.0141C14.6448 78.4807 15.0032 78.8821 15.4698 78.9091Z" fill="#234D68"/>
<path d="M22.5157 79.487C22.2147 79.1494 21.6573 79.116 21.3196 79.417L20.1187 80.4857C19.7699 80.7962 19.7381 81.333 20.0487 81.6818C20.1984 81.8506 20.4054 81.9509 20.6316 81.9637C20.8577 81.9764 21.0759 81.9016 21.2448 81.7503L22.4457 80.6816C22.6145 80.5318 22.7148 80.3248 22.7292 80.0986C22.7435 79.8741 22.667 79.6559 22.5157 79.487Z" fill="#234D68"/>
<path d="M9.61197 78.7389C9.30139 78.3901 8.76466 78.3582 8.41586 78.6688C8.06706 78.9794 8.03521 79.5161 8.34578 79.8649L9.41447 81.0658C9.57056 81.241 9.78079 81.3349 9.9974 81.3477C10.214 81.3604 10.4354 81.2903 10.6106 81.1358C10.9594 80.8253 10.9912 80.2885 10.6807 79.9397L9.61197 78.7389Z" fill="#234D68"/>
<path d="M108.757 103.073C106.412 85.2385 93.494 70.4791 89.2988 66.0992C90.8358 63.8901 93.873 59.5214 96.673 55.4712C98.3867 52.993 98.7084 50.9352 97.6302 49.3537C96.0757 47.0746 92.3393 46.8309 85.1372 48.5335C83.0651 49.0224 81.6986 49.2757 81.0631 49.2884C81.0073 49.1451 80.9452 48.9714 80.8895 48.8185C80.7716 48.4905 80.6394 48.1257 80.4722 47.7228C80.0963 46.8181 79.3876 46.1683 78.4765 45.896C76.2818 45.2382 73.7941 46.8229 69.5846 49.6786C67.667 50.9798 65.6841 52.3241 64.2332 52.9325C62.5481 53.6396 61.258 53.028 58.5059 51.5723C56.5293 50.5275 54.067 49.2263 50.7463 48.3837C48.1072 47.7148 46.935 48.8568 46.4715 49.5958C45.8376 50.6103 44.1924 53.243 54.8905 66.2186C50.5823 70.7403 37.871 85.3962 35.5473 103.073C34.1139 113.979 36.221 122.74 41.8113 129.114C48.0578 136.235 58.267 139.847 72.152 139.847C86.037 139.847 96.2461 136.235 102.493 129.114C108.083 122.741 110.192 113.98 108.757 103.073ZM72.5326 96.1149C78.0194 97.4082 81.0424 100.28 81.0424 104.222C81.0424 108.16 77.9748 111.454 73.9135 112.206V114.294C73.9135 115.267 73.1251 116.055 72.152 116.055C71.1789 116.055 70.3905 115.267 70.3905 114.294V112.204C66.3291 111.453 63.2616 108.159 63.2616 104.22C63.2616 103.247 64.05 102.459 65.0231 102.459C65.9963 102.459 66.7846 103.247 66.7846 104.22C66.7846 106.77 69.1928 108.844 72.152 108.844C75.1112 108.844 77.5193 106.77 77.5193 104.22C77.5193 101.495 74.4184 100.176 71.7443 99.544C71.7315 99.5408 71.7172 99.5424 71.7044 99.5392C71.671 99.5297 71.6391 99.5201 71.6057 99.5106C71.5961 99.509 71.5866 99.5058 71.577 99.5042C71.5675 99.5026 71.5595 99.4978 71.5516 99.4962C66.0552 98.0102 63.2632 95.3075 63.2632 91.4532C63.2632 87.5144 66.3307 84.2208 70.3921 83.4706V81.3826C70.3921 80.4095 71.1805 79.6211 72.1536 79.6211C73.1267 79.6211 73.9151 80.4095 73.9151 81.3826V83.4706C77.9764 84.2208 81.044 87.5144 81.044 91.4532C81.044 92.4263 80.2556 93.2147 79.2824 93.2147C78.3093 93.2147 77.5209 92.4263 77.5209 91.4532C77.5209 88.9049 75.1128 86.8296 72.1536 86.8296C69.1944 86.8296 66.7862 88.9033 66.7862 91.4532C66.7846 92.2288 66.7894 94.5812 72.5326 96.1149Z" fill="#234D68"/>
</g>
</svg>
